<svg xmlns="http://www.w3.org/2000/svg" viewBox="0 0 320 200" role="presentation" focusable="false" aria-hidden="true">
<!-- sheet frame -->
<path d="M12 24V12H24M296 12H308V24M12 176V188H24M308 176V188H296" class="dim"/>
<text x="32" y="21" class="tx">FIG.04</text>
<g class="content" transform="translate(0 8)">
<text x="25" y="38" class="tx">8 BITS / CHAR</text>
<!-- original bytes -->
<text x="56.5" y="47" class="tx" text-anchor="middle">J</text>
<rect x="25" y="52" width="7" height="16" class="ln2"/>
<line x1="25" y1="68" x2="32" y2="52" class="ln2"/>
<rect x="33" y="52" width="7" height="16" class="solid" opacity="0.9"/>
<rect x="41" y="52" width="7" height="16" class="dim"/>
<rect x="49" y="52" width="7" height="16" class="dim"/>
<rect x="57" y="52" width="7" height="16" class="solid" opacity="0.9"/>
<rect x="65" y="52" width="7" height="16" class="dim"/>
<rect x="73" y="52" width="7" height="16" class="solid" opacity="0.9"/>
<rect x="81" y="52" width="7" height="16" class="dim"/>
<text x="125.5" y="47" class="tx" text-anchor="middle">A</text>
<rect x="94" y="52" width="7" height="16" class="ln2"/>
<line x1="94" y1="68" x2="101" y2="52" class="ln2"/>
<rect x="102" y="52" width="7" height="16" class="solid" opacity="0.9"/>
<rect x="110" y="52" width="7" height="16" class="dim"/>
<rect x="118" y="52" width="7" height="16" class="dim"/>
<rect x="126" y="52" width="7" height="16" class="dim"/>
<rect x="134" y="52" width="7" height="16" class="dim"/>
<rect x="142" y="52" width="7" height="16" class="dim"/>
<rect x="150" y="52" width="7" height="16" class="solid" opacity="0.9"/>
<text x="194.5" y="47" class="tx" text-anchor="middle">C</text>
<rect x="163" y="52" width="7" height="16" class="ln2"/>
<line x1="163" y1="68" x2="170" y2="52" class="ln2"/>
<rect x="171" y="52" width="7" height="16" class="solid" opacity="0.9"/>
<rect x="179" y="52" width="7" height="16" class="dim"/>
<rect x="187" y="52" width="7" height="16" class="dim"/>
<rect x="195" y="52" width="7" height="16" class="dim"/>
<rect x="203" y="52" width="7" height="16" class="dim"/>
<rect x="211" y="52" width="7" height="16" class="solid" opacity="0.9"/>
<rect x="219" y="52" width="7" height="16" class="solid" opacity="0.9"/>
<text x="263.5" y="47" class="tx" text-anchor="middle">K</text>
<rect x="232" y="52" width="7" height="16" class="ln2"/>
<line x1="232" y1="68" x2="239" y2="52" class="ln2"/>
<rect x="240" y="52" width="7" height="16" class="solid" opacity="0.9"/>
<rect x="248" y="52" width="7" height="16" class="dim"/>
<rect x="256" y="52" width="7" height="16" class="dim"/>
<rect x="264" y="52" width="7" height="16" class="solid" opacity="0.9"/>
<rect x="272" y="52" width="7" height="16" class="dim"/>
<rect x="280" y="52" width="7" height="16" class="solid" opacity="0.9"/>
<rect x="288" y="52" width="7" height="16" class="solid" opacity="0.9"/>
<!-- drop the unused high bit -->
<line x1="160" y1="76" x2="160" y2="104" class="ln2"/>
<path d="M155 98L160 105L165 98" class="ln2"/>
<text x="172" y="94" class="tx2">BIT 7 IS ALWAYS 0</text>
<!-- packed stream -->
<rect x="25" y="114" width="7" height="16" class="solid" opacity="0.9"/>
<rect x="33" y="114" width="7" height="16" class="dim"/>
<rect x="41" y="114" width="7" height="16" class="dim"/>
<rect x="49" y="114" width="7" height="16" class="solid" opacity="0.9"/>
<rect x="57" y="114" width="7" height="16" class="dim"/>
<rect x="65" y="114" width="7" height="16" class="solid" opacity="0.9"/>
<rect x="73" y="114" width="7" height="16" class="dim"/>
<rect x="81" y="114" width="7" height="16" class="solid" opacity="0.9"/>
<rect x="89" y="114" width="7" height="16" class="dim"/>
<rect x="97" y="114" width="7" height="16" class="dim"/>
<rect x="105" y="114" width="7" height="16" class="dim"/>
<rect x="113" y="114" width="7" height="16" class="dim"/>
<rect x="121" y="114" width="7" height="16" class="dim"/>
<rect x="129" y="114" width="7" height="16" class="solid" opacity="0.9"/>
<rect x="137" y="114" width="7" height="16" class="solid" opacity="0.9"/>
<rect x="145" y="114" width="7" height="16" class="dim"/>
<rect x="153" y="114" width="7" height="16" class="dim"/>
<rect x="161" y="114" width="7" height="16" class="dim"/>
<rect x="169" y="114" width="7" height="16" class="dim"/>
<rect x="177" y="114" width="7" height="16" class="solid" opacity="0.9"/>
<rect x="185" y="114" width="7" height="16" class="solid" opacity="0.9"/>
<rect x="193" y="114" width="7" height="16" class="solid" opacity="0.9"/>
<rect x="201" y="114" width="7" height="16" class="dim"/>
<rect x="209" y="114" width="7" height="16" class="dim"/>
<rect x="217" y="114" width="7" height="16" class="solid" opacity="0.9"/>
<rect x="225" y="114" width="7" height="16" class="dim"/>
<rect x="233" y="114" width="7" height="16" class="solid" opacity="0.9"/>
<rect x="241" y="114" width="7" height="16" class="solid" opacity="0.9"/>
<rect x="251" y="114" width="44" height="16" class="ln2 dash"/>
<text x="273" y="125" class="tx2" text-anchor="middle">−12.5%</text>
<!-- dimension line -->
<path d="M25 138V146M248 138V146M25 142H248" class="dim"/>
<text x="25" y="158" class="tx">7 BITS / CHAR · PACKED</text>
</g>
</svg>
