<svg xmlns="http://www.w3.org/2000/svg" viewBox="0 0 320 200" role="presentation" focusable="false" aria-hidden="true">
<!-- frame -->
<circle cx="12" cy="12" r="2.6" class="node"/>
<circle cx="308" cy="12" r="2.6" class="node"/>
<circle cx="12" cy="188" r="2.6" class="node"/>
<circle cx="308" cy="188" r="2.6" class="node"/>
<text x="22" y="15.5" class="tx">NET.08</text>
<!-- incoming DMs -->
<rect x="18" y="34" width="84" height="22" class="dim" rx="7"/>
<rect x="27" y="41" width="60" height="3" class="solid" opacity="0.5"/>
<rect x="27" y="47" width="36" height="3" class="solid" opacity="0.35"/>
<path d="M102 45H128" class="dim"/>
<circle cx="102" cy="45" r="2" class="solid"/>
<rect x="18" y="62" width="64" height="22" class="dim" rx="7"/>
<rect x="27" y="69" width="40" height="3" class="solid" opacity="0.5"/>
<rect x="27" y="75" width="24" height="3" class="solid" opacity="0.35"/>
<path d="M82 73H128" class="dim"/>
<circle cx="82" cy="73" r="2" class="solid"/>
<rect x="18" y="90" width="92" height="22" class="dim" rx="7"/>
<rect x="27" y="97" width="68" height="3" class="solid" opacity="0.5"/>
<rect x="27" y="103" width="40.8" height="3" class="solid" opacity="0.35"/>
<path d="M110 101H128" class="dim"/>
<circle cx="110" cy="101" r="2" class="solid"/>
<path d="M128 45V101H142" class="dim"/>
<path d="M102 45H128V101H142" class="pulse" pathLength="100" style="animation-delay:0s"/>
<path d="M110 101H128" class="pulse" pathLength="100" style="animation-delay:-1.3s"/>
<!-- the assistant -->
<circle cx="158" cy="101" r="22" class="faint beat"/>
<circle cx="158" cy="101" r="15" class="node"/>
<path d="M158 93.5Q158 101 165.5 101Q158 101 158 108.5Q158 101 150.5 101Q158 101 158 93.5Z" class="solid2"/>
<!-- reply -->
<path d="M173 101H196" class="dim"/>
<path d="M173 101H196" class="pulse" pathLength="100" style="animation-delay:-0.7s"/>
<rect x="196" y="82" width="104" height="38" class="ln" rx="8"/>
<rect x="196" y="82" width="104" height="38" class="fill" rx="8"/>
<rect x="206" y="93" width="76" height="3" class="solid2" opacity="0.95"/>
<rect x="206" y="101" width="58" height="3" class="solid2" opacity="0.6"/>
<rect x="206" y="109" width="40" height="3" class="solid2" opacity="0.6"/>
<!-- logging -->
<text x="18" y="140" class="tx">LOG</text>
<text x="18" y="152" class="tx2">></text>
<rect x="28" y="149.5" width="92" height="3" class="solid" opacity="0.4"/>
<text x="18" y="161" class="tx2">></text>
<rect x="28" y="158.5" width="70" height="3" class="solid" opacity="0.4"/>
<text x="18" y="170" class="tx2">></text>
<rect x="28" y="167.5" width="104" height="3" class="solid" opacity="0.4"/>
<text x="18" y="179" class="tx2">></text>
<rect x="28" y="176.5" width="58" height="3" class="solid" opacity="0.4"/>
<!-- daily summary -->
<path d="M144 164H236" class="dim"/>
<path d="M231 160L236 164L231 168" class="dim"/>
<circle cx="140" cy="164" r="2.4" class="node"/>
<path d="M144 164H236" class="pulse" pathLength="100" style="animation-delay:-0.5s"/>
<path d="M240 142H264L276 154V186H240Z" class="ln"/>
<path d="M264 142V154H276" class="dim"/>
<rect x="246" y="162" width="24" height="3" class="solid2" opacity="0.8"/>
<rect x="246" y="169" width="18" height="3" class="solid" opacity="0.45"/>
<rect x="246" y="176" width="22" height="3" class="solid" opacity="0.45"/>
<text x="258" y="137" class="tx" text-anchor="middle">DAILY PDF</text>
</svg>
